<svg viewBox="0 0 32 32" xmlns="http://www.w3.org/2000/svg" role="img" aria-label="Laurel wreath">
  <circle cx="16" cy="16" r="16" fill="#0a0a0c" />
  <g fill="none" stroke="#f59e0b" stroke-width="1.5" stroke-linecap="round" stroke-linejoin="round">
    <!-- left laurel branch -->
    <path d="M16 27 C 10.5 25.5 6.8 20.5 7 12" />
    <path d="M8.2 21.5 C 5.5 21 4.5 19 4.8 16.7" />
    <path d="M7.6 17.6 C 5.2 17 4.3 15 4.7 12.8" />
    <path d="M7.6 13.6 C 5.6 12.6 5 10.7 5.7 8.6" />
    <path d="M8.6 10 C 7.1 8.4 6.9 6.6 7.8 4.9" />
    <!-- right laurel branch (mirror) -->
    <path d="M16 27 C 21.5 25.5 25.2 20.5 25 12" />
    <path d="M23.8 21.5 C 26.5 21 27.5 19 27.2 16.7" />
    <path d="M24.4 17.6 C 26.8 17 27.7 15 27.3 12.8" />
    <path d="M24.4 13.6 C 26.4 12.6 27 10.7 26.3 8.6" />
    <path d="M23.4 10 C 24.9 8.4 25.1 6.6 24.2 4.9" />
  </g>
  <circle cx="16" cy="8.5" r="1.4" fill="#f59e0b" />
</svg>
